<svg width="24" height="24" viewBox="0 0 24 24" fill="none" xmlns="http://www.w3.org/2000/svg">
<g clip-path="url(#clip0_122_384)">
<path d="M16.2432 8.75H14.2295L16.0723 10.5928C16.1871 10.0805 16.25 9.54789 16.25 9C16.25 8.9163 16.246 8.83302 16.2432 8.75ZM8.75 16.2432C8.83302 16.246 8.9163 16.25 9 16.25C9.54789 16.25 10.0805 16.1871 10.5928 16.0723L8.75 14.2295V16.2432ZM11 8.75C10.6526 8.75 10.3248 8.83027 10.0312 8.9707L14.6289 13.5684C14.9782 13.1385 15.278 12.6677 15.5225 12.165L12.1074 8.75H11ZM8.75 12.1074L12.165 15.5225C12.6677 15.278 13.1385 14.9782 13.5684 14.6289L8.9707 10.0312C8.83027 10.3248 8.75 10.6526 8.75 11V12.1074ZM23.75 20C23.75 22.0711 22.0711 23.75 20 23.75H11C8.92893 23.75 7.25 22.0711 7.25 20V17.5742C3.25615 16.7634 0.25 13.2331 0.25 9C0.25 4.16751 4.16751 0.25 9 0.25C13.2332 0.25 16.7645 3.25606 17.5752 7.25H20C22.0711 7.25 23.75 8.92893 23.75 11V20ZM1.75 9C1.75 12.4005 4.09163 15.2521 7.25 16.0352V11C7.25 9.96467 7.67084 9.02643 8.34863 8.34863C9.02643 7.67084 9.96467 7.25 11 7.25H16.0361C15.2531 4.09151 12.4006 1.75 9 1.75C4.99594 1.75 1.75 4.99594 1.75 9ZM17.75 9C17.75 10.159 17.5239 11.2669 17.1133 12.2812C16.6691 13.3786 16.0099 14.3651 15.1875 15.1875C14.3651 16.0099 13.3786 16.6691 12.2812 17.1133C11.2669 17.5239 10.159 17.75 9 17.75C8.91636 17.75 8.83308 17.7455 8.75 17.7432V20C8.75 21.2426 9.75736 22.25 11 22.25H20C21.2426 22.25 22.25 21.2426 22.25 20V11C22.25 9.75736 21.2426 8.75 20 8.75H17.7432C17.7455 8.83308 17.75 8.91636 17.75 9Z" fill="white"/>
</g>
<defs>
<clipPath id="clip0_122_384">
<rect width="24" height="24" fill="white"/>
</clipPath>
</defs>
</svg>
